<svg width="164" height="31" viewBox="0 0 164 31" fill="none" xmlns="http://www.w3.org/2000/svg">
<path d="M8.128 24.32C4.896 24.32 1.952 22.912 0.896 20.032L2.912 18.464C3.456 20.224 5.152 21.984 8.224 21.984C10.048 21.984 11.264 21.28 11.264 19.904C11.264 18.496 9.856 18.048 8.032 17.632L5.984 17.152C3.776 16.64 1.376 15.584 1.376 12.736C1.376 9.92 3.552 8.192 6.912 8.192C10.176 8.192 12.448 9.92 13.312 11.968L11.2 13.536C10.432 11.712 8.96 10.56 6.752 10.56C5.152 10.56 4 11.264 4 12.576C4 13.952 5.024 14.432 7.136 14.944L9.12 15.456C12.608 16.288 13.76 17.728 13.76 19.872C13.76 22.944 11.136 24.32 8.128 24.32ZM19.771 24H16.987V2.56H19.771V12.64C20.379 10.24 22.043 8.192 25.083 8.192C28.123 8.192 30.011 10.016 30.011 13.312V24H27.259V13.984C27.259 11.968 26.459 10.56 23.835 10.56C20.859 10.56 19.771 12.64 19.771 15.232V24ZM37.4058 24.32C34.7818 24.32 33.3098 22.816 33.3098 20.768C33.3098 18.688 34.8778 17.376 37.0858 16.384L42.6858 13.888C42.5898 12.064 41.7258 10.72 39.2938 10.72C37.0858 10.72 35.6138 12 34.8138 13.696L32.9258 11.744C33.8538 10.144 36.1578 8.192 39.6138 8.192C43.4218 8.192 45.4698 10.464 45.4698 14.144V20.512C45.4698 21.248 45.7578 21.472 46.3338 21.472H47.3258V24H45.5338C43.9338 24 42.7818 23.232 42.7818 21.056V19.968C42.2698 22.016 40.6058 24.32 37.4058 24.32ZM36.1258 20.32C36.1258 21.376 36.8618 22.016 38.3018 22.016C40.9258 22.016 42.7818 20.288 42.7818 18.048V15.904L38.2698 18.016C36.7977 18.72 36.1258 19.36 36.1258 20.32ZM53.3335 24H50.5495V2.56H53.3335V24ZM60.3023 6.016H57.5182V2.56H60.3023V6.016ZM60.3023 24H57.5182V8.512H60.3023V24ZM67.271 24H64.487V8.512H67.271V12.64C67.879 10.24 69.543 8.192 72.583 8.192C75.623 8.192 77.511 10.016 77.511 13.312V24H74.759V13.984C74.759 11.968 73.959 10.56 71.335 10.56C68.359 10.56 67.271 12.64 67.271 15.232V24ZM84.4273 6.016H81.6432V2.56H84.4273V6.016ZM84.4273 24H81.6432V8.512H84.4273V24ZM101.627 24.32C98.5873 24.32 95.6753 22.912 94.8433 19.84L96.0273 18.944C96.4753 21.28 98.5553 23.008 101.691 23.008C103.963 23.008 105.371 22.048 105.371 20.224C105.371 18.528 104.027 17.824 101.755 17.28L99.6433 16.768C97.4353 16.256 95.2273 15.264 95.2273 12.576C95.2273 10.048 97.2753 8.384 100.315 8.384C103.579 8.384 105.595 9.984 106.331 12.288L105.147 13.152C104.443 10.848 102.779 9.696 100.251 9.696C98.2033 9.696 96.7313 10.72 96.7313 12.512C96.7313 14.336 98.0113 14.944 100.315 15.52L102.427 16.032C105.371 16.768 106.811 18.016 106.811 20.192C106.811 23.072 104.379 24.32 101.627 24.32ZM112.123 5.824H110.587V2.56H112.123V5.824ZM112.123 24H110.587V8.704H112.123V24ZM118.404 24H116.868V8.704H118.404V13.28C118.852 10.624 120.676 8.384 123.876 8.384C126.884 8.384 129.028 10.176 129.028 13.92V24H127.492V14.208C127.492 11.328 126.052 9.696 123.332 9.696C119.908 9.696 118.404 12.288 118.404 15.04V24ZM139.349 19.264C138.133 19.264 137.045 18.976 136.149 18.496C135.573 19.168 135.061 20 135.061 20.768C135.061 21.696 135.605 22.24 137.333 22.24H142.165C144.757 22.24 146.357 23.296 146.357 25.472C146.357 28.224 143.349 30.272 138.613 30.272C134.805 30.272 132.405 28.928 132.405 26.816C132.405 25.056 134.133 23.936 135.381 23.488C134.261 23.264 133.749 22.496 133.749 21.632C133.749 20.384 134.773 19.104 135.797 18.272C134.389 17.312 133.557 15.744 133.557 13.824C133.557 10.656 135.829 8.384 139.349 8.384C140.533 8.384 141.589 8.64 142.453 9.088L143.989 5.408L145.621 6.048L143.029 9.44C144.373 10.4 145.173 11.968 145.173 13.824C145.173 16.992 142.901 19.264 139.349 19.264ZM139.349 18.016C141.941 18.016 143.669 16.352 143.669 13.824C143.669 11.296 141.941 9.6 139.349 9.6C136.789 9.6 135.061 11.296 135.061 13.824C135.061 16.352 136.789 18.016 139.349 18.016ZM138.613 29.024C142.549 29.024 144.885 27.584 144.885 25.6C144.885 24.224 143.925 23.584 141.909 23.584H135.797C134.773 24.16 133.749 25.184 133.749 26.432C133.749 28.096 135.669 29.024 138.613 29.024ZM151.06 24H149.524V2.56H151.06V13.28C151.508 10.624 153.428 8.384 156.724 8.384C159.636 8.384 161.684 10.176 161.684 13.92V24H160.148V14.208C160.148 11.328 158.772 9.696 156.18 9.696C152.628 9.696 151.06 12.288 151.06 15.04V24Z" fill="white"/>
</svg>
